<?xml version="1.0" encoding="utf-8"?>
<!-- Generator: Adobe Illustrator 19.0.1, SVG Export Plug-In . SVG Version: 6.00 Build 0)  -->
<svg version="1.1" id="Layer_1" xmlns="http://www.w3.org/2000/svg" xmlns:xlink="http://www.w3.org/1999/xlink" x="0px" y="0px"
	 viewBox="0 0 240 240" style="enable-background:new 0 0 240 240;" xml:space="preserve">
<style type="text/css">
	.st0{fill:#E6E6E6;}
	.st1{fill:#FFFFFF;}
	.st2{fill:#CCCCCC;}
	.st3{fill:#F2F2F2;}
	.st4{fill:#808080;}
	.st5{fill:#999999;}
	.st6{fill:#F1B541;}
	.st7{fill:#F05E5A;}
	.st8{fill:#34C149;}
	.st9{fill:#42C2F4;}
	.st10{fill:#777777;}
	.st11{opacity:0.2;fill:#808080;}
</style>
<g>
	<circle class="st0" cx="120" cy="120" r="120"/>
	<circle class="st1" cx="120" cy="119" r="110"/>
	<g>
		<path class="st2" d="M194,178c12.5-16,20-36.1,20-58c0-51.9-42.1-94-94-94v78L194,178z"/>
		<path class="st2" d="M120,138v76c21.4,0,41.1-7.1,56.9-19.2L120,138z"/>
	</g>
	<g>
		<path class="st0" d="M46,62c-12.5,16-20,36.1-20,58c0,51.9,42.1,94,94,94v-78L46,62z"/>
		<path class="st0" d="M120,102V26c-21,0-41.1,7.1-56.9,19.2L120,102z"/>
	</g>
	<g>
		<rect x="42" y="107" class="st3" width="116" height="71"/>
		<rect x="40" y="180" class="st0" width="120" height="2"/>
		<path class="st4" d="M40,100v80h120v-80H40z M43.5,102c0.8,0,1.5,0.7,1.5,1.5c0,0.8-0.7,1.5-1.5,1.5s-1.5-0.7-1.5-1.5
			C42,102.7,42.7,102,43.5,102z M47.5,102c0.8,0,1.5,0.7,1.5,1.5c0,0.8-0.7,1.5-1.5,1.5s-1.5-0.7-1.5-1.5
			C46,102.7,46.7,102,47.5,102z M51.5,102c0.8,0,1.5,0.7,1.5,1.5c0,0.8-0.7,1.5-1.5,1.5s-1.5-0.7-1.5-1.5
			C50,102.7,50.7,102,51.5,102z M158,178H42v-71h116V178z"/>
		<rect x="42" y="107" class="st0" width="24" height="71"/>
		<g>
			<rect x="70" y="111" class="st2" width="2" height="2"/>
			<rect x="70" y="115" class="st2" width="2" height="2"/>
			<rect x="70" y="119" class="st2" width="2" height="2"/>
			<rect x="70" y="123" class="st2" width="2" height="2"/>
			<rect x="70" y="127" class="st2" width="2" height="2"/>
			<rect x="70" y="131" class="st2" width="2" height="2"/>
			<rect x="70" y="135" class="st2" width="2" height="2"/>
			<rect x="70" y="139" class="st2" width="2" height="2"/>
			<rect x="70" y="143" class="st2" width="2" height="2"/>
			<rect x="70" y="147" class="st2" width="2" height="2"/>
			<rect x="70" y="151" class="st2" width="2" height="2"/>
			<rect x="70" y="155" class="st2" width="2" height="2"/>
			<rect x="70" y="159" class="st2" width="2" height="2"/>
			<rect x="70" y="163" class="st2" width="2" height="2"/>
			<rect x="70" y="167" class="st2" width="2" height="2"/>
			<rect x="70" y="171" class="st2" width="2" height="2"/>
			<rect x="70" y="175" class="st2" width="2" height="2"/>
		</g>
		<rect x="46" y="111" class="st5" width="16" height="4"/>
		<rect x="50" y="117" class="st5" width="12" height="2"/>
		<rect x="46" y="117" class="st5" width="2" height="2"/>
		<rect x="50" y="121" class="st5" width="10" height="2"/>
		<rect x="46" y="121" class="st5" width="2" height="2"/>
		<rect x="50" y="125" class="st5" width="6" height="2"/>
		<rect x="46" y="125" class="st5" width="2" height="2"/>
		<rect x="50" y="129" class="st5" width="12" height="2"/>
		<rect x="46" y="129" class="st5" width="2" height="2"/>
		<rect x="50" y="133" class="st5" width="10" height="2"/>
		<rect x="46" y="133" class="st5" width="2" height="2"/>
		<rect x="74" y="111" class="st6" width="16" height="2"/>
		<rect x="76" y="115" class="st7" width="24" height="2"/>
		<rect x="102" y="115" class="st8" width="12" height="2"/>
		<rect x="74" y="119" class="st9" width="12" height="2"/>
		<rect x="74" y="127" class="st8" width="24" height="2"/>
		<rect x="76" y="131" class="st6" width="32" height="2"/>
		<rect x="76" y="135" class="st6" width="32" height="2"/>
		<rect x="76" y="139" class="st7" width="32" height="2"/>
		<rect x="74" y="143" class="st9" width="12" height="2"/>
		<rect x="74" y="151" class="st9" width="16" height="2"/>
		<rect x="76" y="155" class="st7" width="24" height="2"/>
		<rect x="78" y="159" class="st8" width="16" height="2"/>
		<rect x="80" y="163" class="st6" width="16" height="2"/>
		<rect x="98" y="163" class="st7" width="12" height="2"/>
		<rect x="78" y="167" class="st9" width="12" height="2"/>
		<rect x="74" y="171" class="st8" width="12" height="2"/>
	</g>
	<rect x="40" y="180" class="st2" width="120" height="2"/>
	<g>
		<g>
			
				<rect x="118.4" y="128.9" transform="matrix(0.9063 -0.4226 0.4226 0.9063 -40.8074 75.7426)" class="st0" width="64" height="2"/>
			<polygon class="st1" points="130.7,49.7 87.2,70 121,142.5 179,115.5 152,57.5 137.5,64.2 			"/>
			<path class="st5" d="M130.7,49.7L87.2,70l33.8,72.5l58-27l0,0l-27-58L130.7,49.7z M176.3,114.5L122,139.9L89.8,71l41.7-19.4
				l5.9,12.7l12.7-5.9L176.3,114.5z"/>
			
				<rect x="137.2" y="61.2" transform="matrix(-0.9063 0.4226 -0.4226 -0.9063 301.2074 57.5887)" class="st0" width="14" height="2"/>
			<g>
				<path class="st10" d="M134.5,107.5c-1,0.5-2.2,0-2.7-1l-3.4-7.3c-0.5-1.1-1.5-1.8-2.6-2.1c0.5-1,0.5-2.2,0-3.3l-3.4-7.3
					c-0.5-1,0-2.2,1-2.7c0.5-0.2,0.7-0.8,0.5-1.3c-0.2-0.5-0.8-0.7-1.3-0.5c-2,0.9-2.9,3.3-1.9,5.3l3.4,7.3c0.5,1-0.1,2.2-1,2.7
					c-0.5,0.2-0.7,0.8-0.5,1.3c0.2,0.5,0.8,0.7,1.3,0.5c1-0.5,2.2,0,2.7,1l3.4,7.3c0.9,2,3.3,2.9,5.3,1.9c0.5-0.2,0.7-0.8,0.5-1.3
					C135.6,107.5,135,107.3,134.5,107.5z"/>
				<path class="st10" d="M143.5,103.3c1-0.5,1.4-1.7,1-2.7l-3.4-7.3c-0.5-1.1-0.5-2.3,0-3.4c-1.1-0.3-2-1-2.5-2.1l-3.4-7.3
					c-0.5-1-1.7-1.4-2.7-1c-0.5,0.2-1.1,0-1.3-0.5c-0.2-0.5,0-1.1,0.5-1.3c2-0.9,4.4-0.1,5.3,1.9l3.4,7.3c0.5,1,1.8,1.4,2.7,1
					c0.5-0.2,1.1,0,1.3,0.5c0.2,0.5,0,1.1-0.5,1.3c-1,0.5-1.4,1.7-1,2.7l3.4,7.3c0.9,2,0.1,4.4-1.9,5.3c-0.5,0.2-1.1,0-1.3-0.5
					C142.8,104.2,143,103.6,143.5,103.3z"/>
			</g>
		</g>
		<g>
			
				<rect x="136.6" y="131.4" transform="matrix(0.9063 0.4226 -0.4226 0.9063 71.7619 -58.837)" class="st11" width="64" height="2"/>
			<polygon class="st1" points="217.3,65.8 173.8,45.5 140,118 198,145 225.1,87 210.6,80.3 			"/>
			<path class="st4" d="M217.3,65.8l-43.5-20.3L140,118l58,27l0,0l27-58L217.3,65.8z M197,142.4L142.7,117l32.1-68.9l41.7,19.4
				l-5.9,12.7l12.7,5.9L197,142.4z"/>
			
				<rect x="209.5" y="83.1" transform="matrix(-0.9063 -0.4226 0.4226 -0.9063 377.1001 251.8943)" class="st0" width="14" height="2"/>
			<g>
				<path class="st10" d="M175.5,105.8c-1-0.5-1.4-1.7-1-2.7l3.4-7.3c0.5-1.1,0.5-2.3,0-3.4c1.1-0.3,2-1,2.5-2.1l3.4-7.3
					c0.5-1,1.7-1.4,2.7-1c0.5,0.2,1.1,0,1.3-0.5c0.2-0.5,0-1.1-0.5-1.3c-2-0.9-4.4-0.1-5.3,1.9l-3.4,7.3c-0.5,1-1.8,1.4-2.7,1
					c-0.5-0.2-1.1,0-1.3,0.5c-0.2,0.5,0,1.1,0.5,1.3c1,0.5,1.4,1.7,1,2.7l-3.4,7.3c-0.9,2-0.1,4.4,1.9,5.3c0.5,0.2,1.1,0,1.3-0.5
					C176.2,106.7,176,106.1,175.5,105.8z"/>
				<path class="st10" d="M184.5,110.1c1,0.5,2.2,0,2.7-1l3.4-7.3c0.5-1.1,1.5-1.8,2.6-2.1c-0.5-1-0.5-2.2,0-3.3l3.4-7.3
					c0.5-1,0-2.2-1-2.7c-0.5-0.2-0.7-0.8-0.5-1.3c0.2-0.5,0.8-0.7,1.3-0.5c2,0.9,2.9,3.3,1.9,5.3l-3.4,7.3c-0.5,1,0.1,2.2,1,2.7
					c0.5,0.2,0.7,0.8,0.5,1.3c-0.2,0.5-0.8,0.7-1.3,0.5c-1-0.5-2.2,0-2.7,1L189,110c-0.9,2-3.3,2.9-5.3,1.9
					c-0.5-0.2-0.7-0.8-0.5-1.3C183.4,110.1,184,109.8,184.5,110.1z"/>
			</g>
		</g>
		<g>
			<rect x="132" y="118" class="st11" width="64" height="2"/>
			<polygon class="st11" points="198,56 198,120 196,120 196,54 			"/>
			<polygon class="st1" points="180,38 132,38 132,118 196,118 196,54 180,54 			"/>
			<path class="st4" d="M180,38h-48v80h64h0V54L180,38z M194,116h-60V40h46v14h14V116z"/>
			<rect x="180" y="54" class="st0" width="14" height="2"/>
			<g>
				<path class="st10" d="M159,92c-1.1,0-2-0.9-2-2v-8c0-1.2-0.6-2.3-1.4-3c0.8-0.7,1.4-1.8,1.4-3v-8c0-1.1,0.9-2,2-2
					c0.6,0,1-0.4,1-1c0-0.6-0.4-1-1-1c-2.2,0-4,1.8-4,4v8c0,1.1-1,2-2,2c-0.6,0-1,0.4-1,1c0,0.6,0.4,1,1,1c1.1,0,2,0.9,2,2v8
					c0,2.2,1.8,4,4,4c0.6,0,1-0.4,1-1C160,92.4,159.6,92,159,92z"/>
				<path class="st10" d="M169,92c1.1,0,2-0.9,2-2v-8c0-1.2,0.6-2.3,1.4-3c-0.8-0.7-1.4-1.8-1.4-3v-8c0-1.1-0.9-2-2-2
					c-0.6,0-1-0.4-1-1c0-0.6,0.4-1,1-1c2.2,0,4,1.8,4,4v8c0,1.1,1,2,2,2c0.6,0,1,0.4,1,1c0,0.6-0.4,1-1,1c-1.1,0-2,0.9-2,2v8
					c0,2.2-1.8,4-4,4c-0.6,0-1-0.4-1-1C168,92.4,168.4,92,169,92z"/>
			</g>
		</g>
	</g>
</g>
</svg>
