<?xml version="1.0" encoding="utf-8"?>
<!-- Generator: Adobe Illustrator 19.2.1, SVG Export Plug-In . SVG Version: 6.00 Build 0)  -->
<svg version="1.1" id="Layer_3" xmlns="http://www.w3.org/2000/svg" xmlns:xlink="http://www.w3.org/1999/xlink" x="0px" y="0px"
	 viewBox="0 0 720 424" style="enable-background:new 0 0 720 424;" xml:space="preserve">
<style type="text/css">
	.st0{fill:#E0E0E0;}
	.st1{fill:#0097A7;}
	.st2{fill:#505C71;}
	.st3{fill:#FFFFFF;}
	.st4{fill:#BDBDBD;}
	.st5{fill:#D8D8D8;}
	.st6{fill:#E0F7FA;}
	.st7{fill:#E91E63;}
	.st8{fill:#F1F1F1;}
	.st9{fill:#979797;}
</style>
<rect y="120" class="st0" width="720" height="304"/>
<rect y="24" class="st1" width="720" height="32"/>
<path class="st2" d="M0,24h720V6c0-3.3-2.7-6-6-6H6C2.7,0,0,2.7,0,6V24z"/>
<rect y="56" class="st3" width="720" height="64"/>
<g>
	<path class="st3" d="M564,159.5c-1.9,0-3.5-1.6-3.5-3.5v-16c0-1.9,1.6-3.5,3.5-3.5h72c1.9,0,3.5,1.6,3.5,3.5v16
		c0,1.9-1.6,3.5-3.5,3.5H564z"/>
	<g>
		<path class="st4" d="M636,137c1.7,0,3,1.3,3,3v16c0,1.7-1.3,3-3,3h-72c-1.7,0-3-1.3-3-3v-16c0-1.7,1.3-3,3-3H636 M636,136h-72
			c-2.2,0-4,1.8-4,4v16c0,2.2,1.8,4,4,4h72c2.2,0,4-1.8,4-4v-16C640,137.8,638.2,136,636,136L636,136z"/>
	</g>
</g>
<circle class="st5" cx="12" cy="12" r="4"/>
<circle class="st5" cx="24" cy="12" r="4"/>
<circle class="st5" cx="36" cy="12" r="4"/>
<circle class="st6" cx="21" cy="40" r="5"/>
<path class="st6" d="M81,35H35c-2.8,0-5,2.2-5,5s2.2,5,5,5h46c2.8,0,5-2.2,5-5S83.8,35,81,35z"/>
<path class="st6" d="M683,35h-46c-2.8,0-5,2.2-5,5s2.2,5,5,5h46c2.8,0,5-2.2,5-5S685.8,35,683,35z"/>
<circle class="st6" cx="697" cy="40" r="5"/>
<path class="st4" d="M156,88H84c-2.2,0-4-1.8-4-4v-8c0-2.2,1.8-4,4-4h72c2.2,0,4,1.8,4,4v8C160,86.2,158.2,88,156,88z"/>
<path class="st4" d="M124,112H84c-2.2,0-4-1.8-4-4v-4c0-2.2,1.8-4,4-4h40c2.2,0,4,1.8,4,4v4C128,110.2,126.2,112,124,112z"/>
<path class="st5" d="M220,112h-72c-2.2,0-4-1.8-4-4v-4c0-2.2,1.8-4,4-4h72c2.2,0,4,1.8,4,4v4C224,110.2,222.2,112,220,112z"/>
<path class="st5" d="M300,112h-56c-2.2,0-4-1.8-4-4v-4c0-2.2,1.8-4,4-4h56c2.2,0,4,1.8,4,4v4C304,110.2,302.2,112,300,112z"/>
<path class="st5" d="M372,112h-48c-2.2,0-4-1.8-4-4v-4c0-2.2,1.8-4,4-4h48c2.2,0,4,1.8,4,4v4C376,110.2,374.2,112,372,112z"/>
<path class="st5" d="M452,112h-56c-2.2,0-4-1.8-4-4v-4c0-2.2,1.8-4,4-4h56c2.2,0,4,1.8,4,4v4C456,110.2,454.2,112,452,112z"/>
<g>
	<path class="st3" d="M84,159.5c-1.9,0-3.5-1.6-3.5-3.5v-16c0-1.9,1.6-3.5,3.5-3.5h152c1.9,0,3.5,1.6,3.5,3.5v16
		c0,1.9-1.6,3.5-3.5,3.5H84z"/>
	<g>
		<path class="st4" d="M236,137c1.7,0,3,1.3,3,3v16c0,1.7-1.3,3-3,3H84c-1.7,0-3-1.3-3-3v-16c0-1.7,1.3-3,3-3H236 M236,136H84
			c-2.2,0-4,1.8-4,4v16c0,2.2,1.8,4,4,4h152c2.2,0,4-1.8,4-4v-16C240,137.8,238.2,136,236,136L236,136z"/>
	</g>
</g>
<path class="st5" d="M204,339H84c-3.9,0-7-3.1-7-7V180c0-3.9,3.1-7,7-7h120c3.9,0,7,3.1,7,7v152C211,335.9,207.9,339,204,339z"/>
<path class="st4" d="M204,338H84c-2.8,0-5-2.2-5-5V181c0-2.8,2.2-5,5-5h120c2.8,0,5,2.2,5,5v152C209,335.8,206.8,338,204,338z"/>
<path class="st3" d="M208,288H80V180c0-2.2,1.8-4,4-4h120c2.2,0,4,1.8,4,4V288z"/>
<circle class="st7" cx="208" cy="176" r="4"/>
<path class="st8" d="M84,336h120c2.2,0,4-1.8,4-4v-43H80v43C80,334.2,81.8,336,84,336z"/>
<path class="st9" d="M173,310H99c-1.7,0-3-1.3-3-3l0,0c0-1.7,1.3-3,3-3h74c1.7,0,3,1.3,3,3l0,0C176,308.7,174.7,310,173,310z"/>
<path class="st4" d="M140,320H99c-1.7,0-3-1.3-3-3l0,0c0-1.7,1.3-3,3-3h41c1.7,0,3,1.3,3,3l0,0C143,318.7,141.7,320,140,320z"/>
<path class="st5" d="M348,339H228c-3.9,0-7-3.1-7-7V180c0-3.9,3.1-7,7-7h120c3.9,0,7,3.1,7,7v152C355,335.9,351.9,339,348,339z"/>
<path class="st4" d="M348,338H228c-2.8,0-5-2.2-5-5V181c0-2.8,2.2-5,5-5h120c2.8,0,5,2.2,5,5v152C353,335.8,350.8,338,348,338z"/>
<path class="st3" d="M352,288H224V180c0-2.2,1.8-4,4-4h120c2.2,0,4,1.8,4,4V288z"/>
<circle class="st7" cx="352" cy="176" r="4"/>
<path class="st8" d="M228,336h120c2.2,0,4-1.8,4-4v-43H224v43C224,334.2,225.8,336,228,336z"/>
<path class="st9" d="M317,310h-74c-1.7,0-3-1.3-3-3l0,0c0-1.7,1.3-3,3-3h74c1.7,0,3,1.3,3,3l0,0C320,308.7,318.7,310,317,310z"/>
<path class="st4" d="M284,320h-41c-1.7,0-3-1.3-3-3l0,0c0-1.7,1.3-3,3-3h41c1.7,0,3,1.3,3,3l0,0C287,318.7,285.7,320,284,320z"/>
<path class="st5" d="M492,339H372c-3.9,0-7-3.1-7-7V180c0-3.9,3.1-7,7-7h120c3.9,0,7,3.1,7,7v152C499,335.9,495.9,339,492,339z"/>
<path class="st4" d="M492,338H372c-2.8,0-5-2.2-5-5V181c0-2.8,2.2-5,5-5h120c2.8,0,5,2.2,5,5v152C497,335.8,494.8,338,492,338z"/>
<path class="st3" d="M496,288H368V180c0-2.2,1.8-4,4-4h120c2.2,0,4,1.8,4,4V288z"/>
<circle class="st7" cx="496" cy="176" r="4"/>
<path class="st8" d="M372,336h120c2.2,0,4-1.8,4-4v-43H368v43C368,334.2,369.8,336,372,336z"/>
<path class="st9" d="M461,310h-74c-1.7,0-3-1.3-3-3l0,0c0-1.7,1.3-3,3-3h74c1.7,0,3,1.3,3,3l0,0C464,308.7,462.7,310,461,310z"/>
<path class="st4" d="M428,320h-41c-1.7,0-3-1.3-3-3l0,0c0-1.7,1.3-3,3-3h41c1.7,0,3,1.3,3,3l0,0C431,318.7,429.7,320,428,320z"/>
<path class="st5" d="M636,339H516c-3.9,0-7-3.1-7-7V180c0-3.9,3.1-7,7-7h120c3.9,0,7,3.1,7,7v152C643,335.9,639.9,339,636,339z"/>
<path class="st4" d="M636,338H516c-2.8,0-5-2.2-5-5V181c0-2.8,2.2-5,5-5h120c2.8,0,5,2.2,5,5v152C641,335.8,638.8,338,636,338z"/>
<path class="st3" d="M640,288H512V180c0-2.2,1.8-4,4-4h120c2.2,0,4,1.8,4,4V288z"/>
<circle class="st7" cx="640" cy="176" r="4"/>
<path class="st8" d="M516,336h120c2.2,0,4-1.8,4-4v-43H512v43C512,334.2,513.8,336,516,336z"/>
<path class="st9" d="M605,310h-74c-1.7,0-3-1.3-3-3l0,0c0-1.7,1.3-3,3-3h74c1.7,0,3,1.3,3,3l0,0C608,308.7,606.7,310,605,310z"/>
<path class="st4" d="M572,320h-41c-1.7,0-3-1.3-3-3l0,0c0-1.7,1.3-3,3-3h41c1.7,0,3,1.3,3,3l0,0C575,318.7,573.7,320,572,320z"/>
<path class="st5" d="M643,424v-68c0-3.9-3.1-7-7-7H516c-3.9,0-7,3.1-7,7v68H643z"/>
<path class="st4" d="M641,424v-67c0-2.8-2.2-5-5-5H516c-2.8,0-5,2.2-5,5v67H641z"/>
<path class="st3" d="M640,356c0-2.2-1.8-4-4-4H516c-2.2,0-4,1.8-4,4v68h128V356z"/>
<circle class="st7" cx="640" cy="352" r="4"/>
<path class="st5" d="M499,424v-68c0-3.9-3.1-7-7-7H372c-3.9,0-7,3.1-7,7v68H499z"/>
<path class="st4" d="M497,424v-67c0-2.8-2.2-5-5-5H372c-2.8,0-5,2.2-5,5v67H497z"/>
<path class="st3" d="M496,356c0-2.2-1.8-4-4-4H372c-2.2,0-4,1.8-4,4v68h128V356z"/>
<circle class="st7" cx="496" cy="352" r="4"/>
<path class="st5" d="M355,424v-68c0-3.9-3.1-7-7-7H228c-3.9,0-7,3.1-7,7v68H355z"/>
<path class="st4" d="M353,424v-67c0-2.8-2.2-5-5-5H228c-2.8,0-5,2.2-5,5v67H353z"/>
<path class="st3" d="M352,356c0-2.2-1.8-4-4-4H228c-2.2,0-4,1.8-4,4v68h128V356z"/>
<circle class="st7" cx="352" cy="352" r="4"/>
<path class="st5" d="M211,424v-68c0-3.9-3.1-7-7-7H84c-3.9,0-7,3.1-7,7v68H211z"/>
<path class="st4" d="M209,424v-67c0-2.8-2.2-5-5-5H84c-2.8,0-5,2.2-5,5v67H209z"/>
<path class="st3" d="M208,356c0-2.2-1.8-4-4-4H84c-2.2,0-4,1.8-4,4v68h128V356z"/>
<circle class="st7" cx="208" cy="352" r="4"/>
<circle class="st5" cx="93" cy="148" r="5"/>
<path class="st5" d="M164,144h-56c-2.2,0-4,1.8-4,4c0,2.2,1.8,4,4,4h56c2.2,0,4-1.8,4-4C168,145.8,166.2,144,164,144z"/>
<path class="st5" d="M613,153h-40c-2.8,0-5-2.2-5-5l0,0c0-2.8,2.2-5,5-5h40c2.8,0,5,2.2,5,5l0,0C618,150.8,615.8,153,613,153z"/>
<path class="st5" d="M627,153L627,153c-2.8,0-5-2.2-5-5l0,0c0-2.8,2.2-5,5-5l0,0c2.8,0,5,2.2,5,5l0,0C632,150.8,629.8,153,627,153z"
	/>
<rect x="80" y="118" class="st1" width="48" height="2"/>
</svg>
