<?xml version="1.0" encoding="utf-8"?>
<!-- Generator: Adobe Illustrator 19.0.1, SVG Export Plug-In . SVG Version: 6.00 Build 0)  -->
<svg version="1.1" xmlns="http://www.w3.org/2000/svg" xmlns:xlink="http://www.w3.org/1999/xlink" x="0px" y="0px"
	 viewBox="0 0 720 36" style="enable-background:new 0 0 720 36;" xml:space="preserve">
<style type="text/css">
	.st0{fill:#FFFFFF;}
	.st1{display:none;}
</style>
<g id="Layer_1">
	<g>
		<path class="st0" d="M383.8,16l4.4-7.6C385.6,5.7,382,4,378,4c-0.4,0-0.8,0-1.1,0.1L383.8,16z"/>
		<path class="st0" d="M379.2,12l-4.4-7.6c-4.2,1-7.6,3.8-9.4,7.6H379.2z"/>
		<path class="st0" d="M391.4,22c0.4-1.3,0.6-2.6,0.6-4c0-3-0.9-5.7-2.5-7.9L382.6,22H391.4z"/>
		<path class="st0" d="M364.6,14c-0.4,1.3-0.6,2.6-0.6,4c0,3,0.9,5.7,2.5,7.9l6.9-11.9H364.6z"/>
		<path class="st0" d="M376.8,24l4.4,7.6c4.2-1,7.6-3.8,9.4-7.6H376.8z"/>
		<path class="st0" d="M372.2,20l-4.4,7.6c2.6,2.7,6.2,4.4,10.2,4.4c0.4,0,0.8,0,1.1-0.1L372.2,20z"/>
	</g>
	<g>
		<path class="st0" d="M599.8,16l4.4-7.6C601.6,5.7,598,4,594,4c-0.4,0-0.8,0-1.1,0.1L599.8,16z"/>
		<path class="st0" d="M595.2,12l-4.4-7.6c-4.2,1-7.6,3.8-9.4,7.6H595.2z"/>
		<path class="st0" d="M607.4,22c0.4-1.3,0.6-2.6,0.6-4c0-3-0.9-5.7-2.5-7.9L598.6,22H607.4z"/>
		<path class="st0" d="M580.6,14c-0.4,1.3-0.6,2.6-0.6,4c0,3,0.9,5.7,2.5,7.9l6.9-11.9H580.6z"/>
		<path class="st0" d="M592.8,24l4.4,7.6c4.2-1,7.6-3.8,9.4-7.6H592.8z"/>
		<path class="st0" d="M588.2,20l-4.4,7.6c2.6,2.7,6.2,4.4,10.2,4.4c0.4,0,0.8,0,1.1-0.1L588.2,20z"/>
	</g>
	<g>
		<path class="st0" d="M343.7,11l-3.9-6.8c-4.2,0.7-7.8,3.2-9.9,6.8H343.7z"/>
		<path class="st0" d="M348.9,16l3.9-6.8C350.3,6,346.4,4,342,4L348.9,16z"/>
		<path class="st0" d="M355.1,23c0.6-1.6,0.9-3.2,0.9-5c0-2.5-0.7-4.9-1.9-7l-6.9,12H355.1z"/>
		<path class="st0" d="M340.3,25l3.9,6.8c4.2-0.7,7.8-3.2,9.9-6.8H340.3z"/>
		<path class="st0" d="M328.9,13c-0.6,1.6-0.9,3.2-0.9,5c0,2.5,0.7,4.9,1.9,7l6.9-12H328.9z"/>
		<path class="st0" d="M335.1,20l-3.9,6.8c2.6,3.2,6.5,5.2,10.9,5.2L335.1,20z"/>
	</g>
	<g>
		<path class="st0" d="M631.7,11l-3.9-6.8c-4.2,0.7-7.8,3.2-9.9,6.8H631.7z"/>
		<path class="st0" d="M636.9,16l3.9-6.8C638.3,6,634.4,4,630,4L636.9,16z"/>
		<path class="st0" d="M643.1,23c0.6-1.6,0.9-3.2,0.9-5c0-2.5-0.7-4.9-1.9-7l-6.9,12H643.1z"/>
		<path class="st0" d="M628.3,25l3.9,6.8c4.2-0.7,7.8-3.2,9.9-6.8H628.3z"/>
		<path class="st0" d="M616.9,13c-0.6,1.6-0.9,3.2-0.9,5c0,2.5,0.7,4.9,1.9,7l6.9-12H616.9z"/>
		<path class="st0" d="M623.1,20l-3.9,6.8c2.6,3.2,6.5,5.2,10.9,5.2L623.1,20z"/>
	</g>
	<g>
		<path class="st0" d="M314.1,16l3.4-5.9c-2.3-3.3-6-5.6-10.3-6L314.1,16z"/>
		<path class="st0" d="M308.3,10l-3.4-5.9c-4.3,0.3-8,2.6-10.4,5.9H308.3z"/>
		<path class="st0" d="M318.6,24c0.9-1.8,1.4-3.8,1.4-6c0-2.1-0.5-4.1-1.3-5.9L311.8,24H318.6z"/>
		<path class="st0" d="M297.9,20l-3.4,5.9c2.3,3.3,6,5.6,10.3,6L297.9,20z"/>
		<path class="st0" d="M303.7,26l3.4,5.9c4.3-0.3,8-2.6,10.4-5.9H303.7z"/>
		<path class="st0" d="M293.4,12c-0.9,1.8-1.4,3.8-1.4,6c0,2.1,0.5,4.1,1.3,5.9l6.9-11.9H293.4z"/>
	</g>
	<g>
		<path class="st0" d="M674.1,16l3.4-5.9c-2.3-3.3-6-5.6-10.3-6L674.1,16z"/>
		<path class="st0" d="M668.3,10l-3.4-5.9c-4.3,0.3-8,2.6-10.4,5.9H668.3z"/>
		<path class="st0" d="M678.6,24c0.9-1.8,1.4-3.8,1.4-6c0-2.1-0.5-4.1-1.3-5.9L671.8,24H678.6z"/>
		<path class="st0" d="M657.9,20l-3.4,5.9c2.3,3.3,6,5.6,10.3,6L657.9,20z"/>
		<path class="st0" d="M663.7,26l3.4,5.9c4.3-0.3,8-2.6,10.4-5.9H663.7z"/>
		<path class="st0" d="M653.4,12c-0.9,1.8-1.4,3.8-1.4,6c0,2.1,0.5,4.1,1.3,5.9l6.9-11.9H653.4z"/>
	</g>
	<g>
		<path class="st0" d="M279.2,16l2.9-5c-2-3.5-5.5-6.1-9.7-6.8L279.2,16z"/>
		<path class="st0" d="M272.9,9L270,4l0,0c-4.3,0-8.1,1.9-10.7,5H272.9z"/>
		<path class="st0" d="M282.1,25c1.2-2.1,1.9-4.4,1.9-7c0-1.7-0.3-3.3-0.9-4.8L276.4,25H282.1z"/>
		<path class="st0" d="M267.1,27l2.9,5l0,0c4.3,0,8.1-1.9,10.7-5H267.1z"/>
		<path class="st0" d="M260.8,20l-2.9,5c2,3.5,5.5,6.1,9.7,6.8L260.8,20z"/>
		<path class="st0" d="M257.9,11c-1.2,2.1-1.9,4.4-1.9,7c0,1.7,0.3,3.3,0.9,4.8l6.8-11.8H257.9z"/>
	</g>
	<g>
		<path class="st0" d="M711.2,16l2.9-5c-2-3.5-5.5-6.1-9.7-6.8L711.2,16z"/>
		<path class="st0" d="M704.9,9L702,4l0,0c-4.3,0-8.1,1.9-10.7,5H704.9z"/>
		<path class="st0" d="M714.1,25c1.2-2.1,1.9-4.4,1.9-7c0-1.7-0.3-3.3-0.9-4.8L708.4,25H714.1z"/>
		<path class="st0" d="M699.1,27l2.9,5l0,0c4.3,0,8.1-1.9,10.7-5H699.1z"/>
		<path class="st0" d="M692.8,20l-2.9,5c2,3.5,5.5,6.1,9.7,6.8L692.8,20z"/>
		<path class="st0" d="M689.9,11c-1.2,2.1-1.9,4.4-1.9,7c0,1.7,0.3,3.3,0.9,4.8l6.8-11.8H689.9z"/>
	</g>
	<g>
		<path class="st0" d="M223.3,9c-2,2.4-3.3,5.6-3.3,9c0,0.7,0.1,1.3,0.2,2l6.3-11H223.3z"/>
		<path class="st0" d="M230,29l1.6,2.8c0.8,0.1,1.6,0.2,2.4,0.2c3.3,0,6.3-1.1,8.6-3H230z"/>
		<path class="st0" d="M238,7l-1.6-2.8C235.6,4.1,234.8,4,234,4c-3.3,0-6.3,1.1-8.6,3H238z"/>
		<path class="st0" d="M222.5,20l-1.6,2.8c1.4,3.7,4.3,6.7,7.9,8.2L222.5,20z"/>
		<path class="st0" d="M247.8,16l-6.3,11h3.2c2-2.4,3.3-5.6,3.3-9C248,17.3,247.9,16.7,247.8,16z"/>
		<path class="st0" d="M245.5,16l1.6-2.8c-1.4-3.7-4.3-6.7-7.9-8.2L245.5,16z"/>
	</g>
	<g>
		<path class="st0" d="M202.6,6l-0.8-1.5C200.6,4.2,199.3,4,198,4c-2.6,0-5.1,0.7-7.2,2H202.6z"/>
		<path class="st0" d="M188.2,8c-2.6,2.5-4.2,6.1-4.2,10c0,0.1,0,0.2,0,0.2L189.9,8H188.2z"/>
		<path class="st0" d="M193.4,30l0.8,1.5c1.2,0.3,2.5,0.5,3.8,0.5c2.6,0,5.1-1,7.2-2H193.4z"/>
		<path class="st0" d="M212,18c0-0.1,0-0.2,0-0.2L206.1,28h1.7C210.4,25,212,21.9,212,18z"/>
		<path class="st0" d="M185.3,20l-0.8,1.5c1,3.8,3.4,6.9,6.8,8.8L185.3,20z"/>
		<path class="st0" d="M210.7,16l0.8-1.5c-1-3.8-3.4-6.9-6.8-8.8L210.7,16z"/>
	</g>
	<g>
		<path class="st0" d="M156.8,31c1.6,1,3.3,1,5.2,1s3.6,0,5.2-1H156.8z"/>
		<path class="st0" d="M153.3,7c-2.7,2.2-4.6,5.3-5.2,8.9L153.3,7z"/>
		<path class="st0" d="M167.2,5c-1.6-1-3.3-1-5.2-1s-3.6,0-5.2,1H167.2z"/>
		<path class="st0" d="M148.2,20c0.5,3.6,2.4,6.8,5.2,8.9L148.2,20z"/>
		<path class="st0" d="M175.8,16c-0.5-3.6-2.4-6.8-5.2-8.9L175.8,16z"/>
		<path class="st0" d="M170.7,29c2.7-2.2,4.6-5.3,5.2-8.9L170.7,29z"/>
	</g>
	<g>
		<path class="st0" d="M526.6,16l4.8-8.3C528.9,5.4,525.6,4,522,4c-0.8,0-1.5,0.1-2.2,0.2L526.6,16z"/>
		<path class="st0" d="M535.7,21c0.2-1,0.3-2,0.3-3c0-3.3-1.2-6.4-3.1-8.8L526,21H535.7z"/>
		<path class="st0" d="M517.4,20l-4.8,8.3c2.5,2.3,5.8,3.7,9.4,3.7c0.8,0,1.5-0.1,2.2-0.2L517.4,20z"/>
		<path class="st0" d="M521.4,23l4.8,8.3c4.1-1.3,7.3-4.4,8.8-8.3H521.4z"/>
		<path class="st0" d="M522.6,13l-4.8-8.3c-4.1,1.3-7.3,4.4-8.8,8.3H522.6z"/>
		<path class="st0" d="M518,15h-9.6c-0.2,1-0.3,2-0.3,3c0,3.3,1.2,6.4,3.1,8.8L518,15z"/>
	</g>
	<g>
		<path class="st0" d="M562.6,16l4.8-8.3C564.9,5.4,561.6,4,558,4c-0.8,0-1.5,0.1-2.2,0.2L562.6,16z"/>
		<path class="st0" d="M571.7,21c0.2-1,0.3-2,0.3-3c0-3.3-1.2-6.4-3.1-8.8L562,21H571.7z"/>
		<path class="st0" d="M553.4,20l-4.8,8.3c2.5,2.3,5.8,3.7,9.4,3.7c0.8,0,1.5-0.1,2.2-0.2L553.4,20z"/>
		<path class="st0" d="M557.4,23l4.8,8.3c4.1-1.3,7.3-4.4,8.8-8.3H557.4z"/>
		<path class="st0" d="M558.6,13l-4.8-8.3c-4.1,1.3-7.3,4.4-8.8,8.3H558.6z"/>
		<path class="st0" d="M554,15h-9.6c-0.2,1-0.3,2-0.3,3c0,3.3,1.2,6.4,3.1,8.8L554,15z"/>
	</g>
	<g>
		<path class="st0" d="M417.5,16l5.2-9c-2.4-1.9-5.4-3-8.7-3c-1.1,0-2.2,0.1-3.2,0.4L417.5,16z"/>
		<path class="st0" d="M414,14l-5.2-9c-3.9,1.6-7,4.9-8.2,9H414z"/>
		<path class="st0" d="M417.5,20h10.4c0.1-0.7,0.2-1.3,0.2-2c0-3.7-1.5-7.1-3.8-9.6L417.5,20z"/>
		<path class="st0" d="M410.5,16h-10.4c-0.1,0.7-0.2,1.3-0.2,2c0,3.7,1.5,7.1,3.8,9.6L410.5,16z"/>
		<path class="st0" d="M414,22l5.2,9c3.9-1.6,7-4.9,8.2-9H414z"/>
		<path class="st0" d="M410.5,20l-5.2,9c2.4,1.9,5.4,3,8.7,3c1.1,0,2.2-0.1,3.2-0.4L410.5,20z"/>
	</g>
	<g>
		<path class="st0" d="M489.5,16l5.2-9c-2.4-1.9-5.4-3-8.7-3c-1.1,0-2.2,0.1-3.2,0.4L489.5,16z"/>
		<path class="st0" d="M486,14l-5.2-9c-3.9,1.6-7,4.9-8.2,9H486z"/>
		<path class="st0" d="M489.5,20h10.4c0.1-0.7,0.2-1.3,0.2-2c0-3.7-1.5-7.1-3.8-9.6L489.5,20z"/>
		<path class="st0" d="M482.5,16h-10.4c-0.1,0.7-0.2,1.3-0.2,2c0,3.7,1.5,7.1,3.8,9.6L482.5,16z"/>
		<path class="st0" d="M486,22l5.2,9c3.9-1.6,7-4.9,8.2-9H486z"/>
		<path class="st0" d="M482.5,20l-5.2,9c2.4,1.9,5.4,3,8.7,3c1.1,0,2.2-0.1,3.2-0.4L482.5,20z"/>
	</g>
	<g>
		<path class="st0" d="M451.2,16L457,5.9c-2.1-1.2-4.4-1.9-7-1.9c-1.8,0-3.6,0.4-5.2,1L451.2,16z"/>
		<path class="st0" d="M452.3,18H464c0-4.5-2.1-8.4-5.3-11L452.3,18z"/>
		<path class="st0" d="M448.8,16L443,5.9c-3.6,2.1-6.2,5.8-6.8,10.1H448.8z"/>
		<path class="st0" d="M451.2,20l5.8,10.1c3.6-2.1,6.2-5.8,6.8-10.1H451.2z"/>
		<path class="st0" d="M448.8,20L443,30.1c2.1,1.2,4.4,1.9,7,1.9c1.8,0,3.6-0.4,5.2-1L448.8,20z"/>
		<path class="st0" d="M447.7,18H436c0,4.5,2.1,8.4,5.3,11L447.7,18z"/>
	</g>
	<g>
		<path class="st0" d="M7.3,9c-2,2.4-3.3,5.6-3.3,9c0,0.7,0.1,1.3,0.2,2l6.3-11H7.3z"/>
		<path class="st0" d="M14,29l1.6,2.8c0.8,0.1,1.6,0.2,2.4,0.2c3.3,0,6.3-1.1,8.6-3H14z"/>
		<path class="st0" d="M22,7l-1.6-2.8C19.6,4.1,18.8,4,18,4c-3.3,0-6.3,1.1-8.6,3H22z"/>
		<path class="st0" d="M6.5,20l-1.6,2.8c1.4,3.7,4.3,6.7,7.9,8.2L6.5,20z"/>
		<path class="st0" d="M31.8,16l-6.3,11h3.2c2-2.4,3.3-5.6,3.3-9C32,17.3,31.9,16.7,31.8,16z"/>
		<path class="st0" d="M29.5,16l1.6-2.8c-1.4-3.7-4.3-6.7-7.9-8.2L29.5,16z"/>
	</g>
	<g>
		<path class="st0" d="M58.6,6l-0.8-1.5C56.6,4.2,55.3,4,54,4c-2.6,0-5.1,0.7-7.2,2H58.6z"/>
		<path class="st0" d="M44.2,8c-2.6,2.5-4.2,6.1-4.2,10c0,0.1,0,0.2,0,0.2L45.9,8H44.2z"/>
		<path class="st0" d="M49.4,30l0.8,1.5c1.2,0.3,2.5,0.5,3.8,0.5c2.6,0,5.1-1,7.2-2H49.4z"/>
		<path class="st0" d="M68,18c0-0.1,0-0.2,0-0.2L62.1,28h1.7C66.4,25,68,21.9,68,18z"/>
		<path class="st0" d="M41.3,20l-0.8,1.5c1,3.8,3.4,6.9,6.8,8.8L41.3,20z"/>
		<path class="st0" d="M66.7,16l0.8-1.5c-1-3.8-3.4-6.9-6.8-8.8L66.7,16z"/>
	</g>
	<g>
		<path class="st0" d="M84.8,31c1.6,1,3.3,1,5.2,1s3.6,0,5.2-1H84.8z"/>
		<path class="st0" d="M81.3,7c-2.7,2.2-4.6,5.3-5.2,8.9L81.3,7z"/>
		<path class="st0" d="M95.2,5c-1.6-1-3.3-1-5.2-1s-3.6,0-5.2,1H95.2z"/>
		<path class="st0" d="M76.2,20c0.5,3.6,2.4,6.8,5.2,8.9L76.2,20z"/>
		<path class="st0" d="M103.8,16c-0.5-3.6-2.4-6.8-5.2-8.9L103.8,16z"/>
		<path class="st0" d="M98.7,29c2.7-2.2,4.6-5.3,5.2-8.9L98.7,29z"/>
	</g>
</g>
<g id="guides" class="st1">
</g>
</svg>
