<?xml version="1.0" encoding="utf-8"?>
<!-- Generator: Adobe Illustrator 19.0.1, SVG Export Plug-In . SVG Version: 6.00 Build 0)  -->
<svg version="1.1" xmlns="http://www.w3.org/2000/svg" xmlns:xlink="http://www.w3.org/1999/xlink" x="0px" y="0px"
	 viewBox="0 0 1248 96" style="enable-background:new 0 0 1248 96;" xml:space="preserve">
<style type="text/css">
	.st0{display:none;}
	.st1{fill:#FFFFFF;}
</style>
<g id="guides" class="st0">
</g>
<g id="_x31_2">
	<path class="st1" d="M1134.1,37.1c-1.3-3.6-3.2-6.8-5.6-9.7L1134.1,37.1z"/>
	<path class="st1" d="M1134.1,58.9l-5.6,9.7C1130.9,65.7,1132.8,62.4,1134.1,58.9z"/>
	<path class="st1" d="M1109.6,16.5c-1.8-0.3-3.7-0.5-5.6-0.5c-1.9,0-3.8,0.2-5.6,0.5H1109.6z"/>
	<path class="st1" d="M1073.9,58.9c1.3,3.6,3.2,6.8,5.6,9.7L1073.9,58.9z"/>
	<path class="st1" d="M1098.4,79.5c1.8,0.3,3.7,0.5,5.6,0.5c1.9,0,3.8-0.2,5.6-0.5H1098.4z"/>
	<path class="st1" d="M1073.9,37.1l5.6-9.7C1077.1,30.3,1075.2,33.6,1073.9,37.1z"/>
</g>
<g id="_x31_1">
	<path class="st1" d="M1015.5,19l-1.4-2.4c-2-0.4-4-0.6-6.1-0.6c-4.8,0-9.4,1.1-13.5,3H1015.5z"/>
	<path class="st1" d="M976.1,45.2L986.6,27h-2.8C979.6,32,976.7,38.3,976.1,45.2z"/>
	<path class="st1" d="M1000.5,77l1.4,2.4c2,0.4,4,0.6,6.1,0.6c4.8,0,9.4-1.1,13.5-3H1000.5z"/>
	<path class="st1" d="M979.1,56l-1.4,2.4c2.2,6.4,6.4,11.9,11.9,15.8L979.1,56z"/>
	<path class="st1" d="M1029.4,69h2.8c4.3-5,7.2-11.3,7.8-18.2L1029.4,69z"/>
	<path class="st1" d="M1036.9,40l1.4-2.4c-2.2-6.4-6.4-11.9-11.9-15.8L1036.9,40z"/>
</g>
<g id="_x31_0">
	<path class="st1" d="M885.4,56l-2.8,4.8c2.9,6.7,8.1,12.2,14.5,15.6L885.4,56z"/>
	<path class="st1" d="M886.3,29c-3.9,5.3-6.3,11.9-6.3,19c0,0.5,0,0.9,0,1.4L891.8,29H886.3z"/>
	<path class="st1" d="M905.6,75l2.8,4.8c1.2,0.1,2.4,0.2,3.6,0.2c6.3,0,12.2-1.8,17.1-5H905.6z"/>
	<path class="st1" d="M918.4,21l-2.8-4.8c-1.2-0.1-2.4-0.2-3.6-0.2c-6.3,0-12.2,1.8-17.1,5H918.4z"/>
	<path class="st1" d="M938.6,40l2.8-4.8c-2.9-6.7-8.1-12.2-14.5-15.6L938.6,40z"/>
	<path class="st1" d="M944,46.6L932.2,67h5.5c3.9-5.3,6.3-11.9,6.3-19C944,47.5,944,47.1,944,46.6z"/>
</g>
<g id="_x39_">
	<path class="st1" d="M788.9,31c-3.1,4.9-4.9,10.8-4.9,17c0,1.6,0.1,3.2,0.4,4.8L796.9,31H788.9z"/>
	<path class="st1" d="M810.8,73l4,7c0.4,0,0.8,0,1.2,0c7.5,0,14.5-2.6,19.9-7H810.8z"/>
	<path class="st1" d="M817.2,16c-0.4,0-0.8,0-1.2,0c-7.5,0-14.5,2.6-19.9,7h25.1L817.2,16z"/>
	<path class="st1" d="M791.8,56l-4,7c3.6,6.7,9.5,12,16.6,14.8L791.8,56z"/>
	<path class="st1" d="M840.2,40l4-7c-3.6-6.7-9.5-12-16.6-14.8L840.2,40z"/>
	<path class="st1" d="M847.6,43.2L835.1,65h8c3.1-4.9,4.9-10.8,4.9-17C848,46.4,847.9,44.8,847.6,43.2z"/>
</g>
<g id="_x38_">
	<path class="st1" d="M718.9,16c-8.2,0.3-15.6,3.7-21.1,9H724L718.9,16z"/>
	<path class="st1" d="M691.7,33c-2.4,4.5-3.7,9.6-3.7,15c0,2.7,0.3,5.3,1,7.8L702.1,33H691.7z"/>
	<path class="st1" d="M716,71l5.2,9c8.2-0.3,15.6-3.7,21.1-9H716z"/>
	<path class="st1" d="M698.1,56l-5.2,9c4.2,6.6,10.6,11.6,18.3,13.8L698.1,56z"/>
	<path class="st1" d="M751,40.2L737.9,63h10.4c2.4-4.5,3.7-9.6,3.7-15C752,45.3,751.7,42.7,751,40.2z"/>
	<path class="st1" d="M741.9,40l5.2-9c-4.2-6.6-10.6-11.6-18.3-13.8L741.9,40z"/>
</g>
<g id="_x37_">
	<path class="st1" d="M620.6,16.2c-8.3,0.9-15.6,4.9-20.8,10.8h27L620.6,16.2z"/>
	<path class="st1" d="M594.8,35c-1.8,4-2.8,8.4-2.8,13c0,3.6,0.6,7.1,1.7,10.4L607.3,35H594.8z"/>
	<path class="st1" d="M621.1,69l6.2,10.8c8.3-0.9,15.6-4.9,20.8-10.8H621.1z"/>
	<path class="st1" d="M654.3,37.6L640.7,61h12.5c1.8-4,2.8-8.4,2.8-13C656,44.4,655.4,40.9,654.3,37.6z"/>
	<path class="st1" d="M643.6,40l6.2-10.8c-4.7-6.4-11.7-11-19.8-12.6L643.6,40z"/>
	<path class="st1" d="M604.4,56l-6.2,10.8c4.7,6.4,11.7,11,19.8,12.6L604.4,56z"/>
</g>
<g id="_x36_">
	<path class="st1" d="M497.9,37c-1.3,3.4-1.9,7.1-1.9,11c0,4.5,1,8.9,2.7,12.8L512.4,37H497.9z"/>
	<path class="st1" d="M526.3,67l7.2,12.5c8.3-1.4,15.4-6,20.2-12.5H526.3z"/>
	<path class="st1" d="M522.5,16.5c-8.3,1.4-15.4,6-20.2,12.5h27.5L522.5,16.5z"/>
	<path class="st1" d="M557.3,35.2L543.6,59h14.5c1.3-3.4,1.9-7.1,1.9-11C560,43.5,559,39.1,557.3,35.2z"/>
	<path class="st1" d="M545.3,40l7.2-12.5c-5.2-6.2-12.6-10.3-21-11.3L545.3,40z"/>
	<path class="st1" d="M510.7,56l-7.2,12.5c5.2,6.2,12.6,10.3,21,11.3L510.7,56z"/>
</g>
<g id="_x35_">
	<path class="st1" d="M401.3,39c-0.8,2.9-1.3,5.9-1.3,9c0,5.4,1.4,10.5,3.7,15l13.8-24H401.3z"/>
	<path class="st1" d="M431.4,65l8.1,14.1c8.2-2,15.2-7.1,19.5-14.1H431.4z"/>
	<path class="st1" d="M424.4,16.9c-8.2,2-15.2,7.1-19.5,14.1h27.7L424.4,16.9z"/>
	<path class="st1" d="M447,40l8.1-14.1c-5.6-5.8-13.3-9.6-22-9.9L447,40z"/>
	<path class="st1" d="M460.3,33l-13.8,24h16.3c0.8-2.9,1.3-5.9,1.3-9C464,42.6,462.6,37.5,460.3,33z"/>
	<path class="st1" d="M417,56l-8.1,14.1c5.6,5.8,13.3,9.6,22,9.9L417,56z"/>
</g>
<g id="_x34_">
	<path class="st1" d="M304.8,41c-0.5,2.3-0.8,4.6-0.8,7c0,6.2,1.8,12,4.9,17l13.8-24H304.8z"/>
	<path class="st1" d="M326.4,17.5c-8.1,2.5-14.8,8.2-18.7,15.5h27.7L326.4,17.5z"/>
	<path class="st1" d="M336.6,63l9,15.5c8.1-2.5,14.8-8.2,18.7-15.5H336.6z"/>
	<path class="st1" d="M348.7,40l9-15.5C352,19.2,344.4,16,336,16c-0.4,0-0.8,0-1.1,0L348.7,40z"/>
	<path class="st1" d="M323.3,56l-9,15.5C320,76.8,327.6,80,336,80c0.4,0,0.8,0,1.1,0L323.3,56z"/>
	<path class="st1" d="M363.1,31l-13.8,24h17.9c0.5-2.3,0.8-4.6,0.8-7C368,41.8,366.2,36,363.1,31z"/>
</g>
<g id="_x33_">
	<path class="st1" d="M229.6,56l-9.7,16.9c5.5,4.5,12.5,7.1,20.1,7.1c1.1,0,2.3-0.1,3.4-0.2L229.6,56z"/>
	<path class="st1" d="M241.7,61l9.7,16.9c7.9-3,14.3-9.2,17.8-16.9H241.7z"/>
	<path class="st1" d="M238.3,35l-9.7-16.9c-7.9,3-14.3,9.2-17.8,16.9H238.3z"/>
	<path class="st1" d="M208.4,43c-0.3,1.6-0.4,3.3-0.4,5c0,7,2.3,13.5,6.1,18.8L227.9,43H208.4z"/>
	<path class="st1" d="M265.9,29.2L252.1,53h19.5c0.3-1.6,0.4-3.3,0.4-5C272,41,269.7,34.5,265.9,29.2z"/>
	<path class="st1" d="M250.4,40l9.7-16.9c-5.5-4.5-12.5-7.1-20.1-7.1c-1.1,0-2.3,0.1-3.4,0.2L250.4,40z"/>
</g>
<g id="_x32_">
	<path class="st1" d="M129.8,19.4c-7.6,3.8-13.5,10.5-16.2,18.6h26.9L129.8,19.4z"/>
	<path class="st1" d="M112.1,46c0,0.7-0.1,1.3-0.1,2c0,8.2,3.1,15.6,8.2,21.3L133.6,46H112.1z"/>
	<path class="st1" d="M137.1,56l-10.8,18.6C131.4,78,137.5,80,144,80c2.2,0,4.4-0.2,6.5-0.7L137.1,56z"/>
	<path class="st1" d="M147.5,58l10.8,18.6c7.6-3.8,13.5-10.5,16.2-18.6H147.5z"/>
	<path class="st1" d="M150.9,40l10.8-18.6C156.6,18,150.5,16,144,16c-2.2,0-4.4,0.2-6.5,0.7L150.9,40z"/>
	<path class="st1" d="M167.8,26.7L154.4,50h21.5c0-0.7,0.1-1.3,0.1-2C176,39.8,172.9,32.4,167.8,26.7z"/>
</g>
<g id="_x31_">
	<path class="st1" d="M16,48c0,8.9,3.7,17,9.6,22.8L38.8,48H16z"/>
	<path class="st1" d="M43.4,56L32,75.7c4.7,2.7,10.2,4.3,16,4.3c3,0,5.8-0.4,8.6-1.2L43.4,56z"/>
	<path class="st1" d="M32,20.3C24.7,24.5,19.2,31.6,17,40h26.4L32,20.3z"/>
	<path class="st1" d="M52.6,56L64,75.7c7.3-4.2,12.8-11.3,15-19.7H52.6z"/>
	<path class="st1" d="M70.4,25.2L57.2,48H80C80,39.1,76.3,31,70.4,25.2z"/>
	<path class="st1" d="M52.6,40L64,20.3C59.3,17.6,53.8,16,48,16c-3,0-5.8,0.4-8.6,1.2L52.6,40z"/>
</g>
</svg>
