<?xml version="1.0" encoding="utf-8"?>
<!-- Generator: Adobe Illustrator 19.0.1, SVG Export Plug-In . SVG Version: 6.00 Build 0)  -->
<svg version="1.1" xmlns="http://www.w3.org/2000/svg" xmlns:xlink="http://www.w3.org/1999/xlink" x="0px" y="0px"
	 viewBox="0 0 36 36" style="enable-background:new 0 0 36 36;" xml:space="preserve">
<style type="text/css">
	.st0{fill:#333333;}
	.st1{display:none;}
</style>
<g id="Layer_1">
	<g>
		<g>
			<path class="st0" d="M18,0C8.1,0,0,8.1,0,18c0,9.9,8.1,18,18,18c9.9,0,18-8.1,18-18C36,8.1,27.9,0,18,0z M18,34
				C9.2,34,2,26.8,2,18C2,9.2,9.2,2,18,2s16,7.2,16,16C34,26.8,26.8,34,18,34z"/>
		</g>
		<g>
			<path class="st0" d="M32,18c0-1.7-0.3-3.3-0.8-4.8L24.4,25h5.8C31.3,22.9,32,20.6,32,18z"/>
			<path class="st0" d="M5.9,11C4.7,13.1,4,15.4,4,18c0,1.7,0.3,3.3,0.8,4.8L11.6,11H5.9z"/>
			<path class="st0" d="M15.1,27l2.9,5c4.3,0,8.2-1.9,10.7-5H15.1z"/>
			<path class="st0" d="M27.2,16l2.9-5c-2-3.5-5.5-6.1-9.7-6.8L27.2,16z"/>
			<path class="st0" d="M8.8,20l-2.9,5c2,3.5,5.5,6.1,9.7,6.8L8.8,20z"/>
			<path class="st0" d="M20.9,9L18,4C13.7,4,9.8,5.9,7.3,9H20.9z"/>
		</g>
	</g>
</g>
<g id="Layer_2" class="st1">
</g>
</svg>
