<?xml version="1.0" encoding="utf-8"?>
<!-- Generator: Adobe Illustrator 19.0.1, SVG Export Plug-In . SVG Version: 6.00 Build 0)  -->
<svg version="1.1" xmlns="http://www.w3.org/2000/svg" xmlns:xlink="http://www.w3.org/1999/xlink" x="0px" y="0px"
	 viewBox="0 0 440 240" style="enable-background:new 0 0 440 240;" xml:space="preserve">
<style type="text/css">
	.st0{fill:#F2F2F2;}
	.st1{fill:#B3B3B3;}
	.st2{fill:#777777;}
	.st3{fill:#E6E6E6;}
	.st4{fill:#FFFFFF;}
	.st5{fill:#999999;}
	.st6{fill:#808080;}
	.st7{opacity:0.8;}
	.st8{fill:#CCCCCC;}
	.st9{fill:#DDDDDD;}
	.st10{fill:#FCFCFC;}
	.st11{fill:#E91E63;}
	.st12{opacity:0.15;}
	.st13{opacity:0.22;}
	.st14{fill:#2196F3;}
</style>
<g id="Layer_1">
	<g>
		<g>
			<circle class="st0" cx="220" cy="120" r="120"/>
		</g>
		<g>
			<g>
				<circle class="st1" cx="152" cy="175.2" r="1"/>
			</g>
			<g>
				<circle class="st1" cx="156" cy="183.2" r="1"/>
			</g>
			<g>
				<path class="st1" d="M176,162.2c-0.6,0-1,0.4-1,1c0,0.5,0,1-0.1,1.7c0,0.5,0.4,1,0.9,1.1c0.6,0,1-0.4,1.1-0.9
					c0.1-0.7,0.1-1.3,0.1-1.9C177,162.6,176.6,162.2,176,162.2z"/>
			</g>
			<g>
				<path class="st1" d="M173.2,173.3c-0.2-0.1-0.4-0.2-0.5-0.2c-0.3,0-0.6,0.2-0.8,0.4c-2.6,4-6.6,6.8-11.2,7.9
					c-0.5,0.1-0.9,0.7-0.7,1.2c0.1,0.5,0.7,0.9,1.2,0.7c5.1-1.3,9.5-4.4,12.4-8.8C173.8,174.3,173.7,173.6,173.2,173.3z"/>
			</g>
			<g>
				<path class="st1" d="M164.5,173c2.6-2.3,4.2-5.5,4.4-9c0-0.6-0.4-1-0.9-1.1c0,0,0,0-0.1,0c-0.5,0-1,0.4-1,0.9
					c-0.2,3-1.5,5.7-3.7,7.6c-0.4,0.4-0.5,1-0.1,1.4C163.5,173.3,164.1,173.3,164.5,173z"/>
			</g>
			<g>
				<path class="st1" d="M156,176.2c1.7,0,3.4-0.3,5-1c0.5-0.2,0.8-0.8,0.5-1.3c-0.2-0.4-0.5-0.6-0.9-0.6c-0.1,0-0.3,0-0.4,0.1
					c-1.3,0.6-2.8,0.8-4.2,0.8c-0.6,0-1,0.4-1,1S155.4,176.2,156,176.2z"/>
			</g>
			<g>
				<path class="st1" d="M168,141.7c0.5,0,1-0.4,1-1c0.1-3.1,0.8-6,2.2-8.6c0.3-0.5,0.1-1.1-0.4-1.4c-0.2-0.1-0.3-0.1-0.5-0.1
					c-0.4,0-0.7,0.2-0.9,0.5c-1.6,2.9-2.4,6.2-2.5,9.5C167,141.2,167.4,141.6,168,141.7z"/>
			</g>
			<g>
				<path class="st1" d="M168,147.2c0.6,0,1-0.4,1-1v-2c0-0.6-0.4-1-1-1s-1,0.4-1,1v2C167,146.7,167.4,147.2,168,147.2z"/>
			</g>
			<g>
				<path class="st1" d="M177,136.1c-0.5-0.2-1.1,0.1-1.3,0.6c-0.5,1.4-0.7,2.8-0.7,4.3c0,0.6,0.4,1,1,1s1-0.4,1-1
					c0-1.3,0.2-2.5,0.6-3.7C177.8,136.8,177.5,136.2,177,136.1z"/>
			</g>
			<g>
				<path class="st1" d="M188,128c-2.6,0-5.1,0.7-7.2,2.2c-0.5,0.3-0.6,0.9-0.3,1.4c0.2,0.3,0.5,0.4,0.8,0.4c0.2,0,0.4-0.1,0.6-0.2
					c1.8-1.2,3.9-1.8,6.1-1.8c0.6,0,1-0.4,1-1S188.6,128,188,128z"/>
			</g>
			<g>
				<circle class="st1" cx="176" cy="145" r="1"/>
			</g>
			<g>
				<circle class="st1" cx="176" cy="149" r="1"/>
			</g>
		</g>
		<g>
			<g>
				<path class="st2" d="M302,112c-4.4,0-8,3.6-8,8s3.6,8,8,8s8-3.6,8-8S306.4,112,302,112z M302,126c-3.3,0-6-2.7-6-6s2.7-6,6-6
					s6,2.7,6,6S305.3,126,302,126z"/>
			</g>
			<g>
				<circle class="st2" cx="302" cy="120" r="4"/>
			</g>
		</g>
		<g>
			<g>
				<path class="st2" d="M146,179c0-4.4-3.6-8-8-8s-8,3.6-8,8s3.6,8,8,8S146,183.4,146,179z M144,179c0,3.3-2.7,6-6,6s-6-2.7-6-6
					s2.7-6,6-6S144,175.7,144,179z"/>
			</g>
			<g>
				<circle class="st2" cx="138" cy="179" r="4"/>
			</g>
		</g>
		<g>
			<g>
				<rect y="100" class="st3" width="120" height="2"/>
			</g>
			<g>
				<rect y="20" class="st4" width="120" height="80"/>
			</g>
			<g>
				<path class="st5" d="M0,20v80h120V20H0z M3.5,22C4.3,22,5,22.7,5,23.5C5,24.3,4.3,25,3.5,25S2,24.3,2,23.5C2,22.7,2.7,22,3.5,22
					z M7.5,22C8.3,22,9,22.7,9,23.5C9,24.3,8.3,25,7.5,25S6,24.3,6,23.5C6,22.7,6.7,22,7.5,22z M11.5,22c0.8,0,1.5,0.7,1.5,1.5
					c0,0.8-0.7,1.5-1.5,1.5S10,24.3,10,23.5C10,22.7,10.7,22,11.5,22z M118,98H2V27h116V98z"/>
			</g>
			<g>
				<g>
					<path class="st6" d="M6,40v36h108V40H6z"/>
				</g>
			</g>
			<g class="st7">
				<rect x="6" y="80" class="st8" width="19" height="4"/>
			</g>
			<g class="st7">
				<rect x="6" y="86" class="st8" width="108" height="12"/>
			</g>
			<g class="st7">
				<rect x="6" y="31" class="st8" width="108" height="5"/>
			</g>
			<g>
				<g>
					<polygon class="st4" points="20,72 40,72 40,52 					"/>
				</g>
				<g>
					<polygon class="st4" points="51,72 75,72 75,48 					"/>
				</g>
				<g>
					<polygon class="st9" points="40,52 40,72 48,72 54,66 					"/>
				</g>
				<g>
					<polygon class="st9" points="75,72 99,72 75,48 					"/>
				</g>
				<g>
					<circle class="st4" cx="55" cy="48" r="4"/>
				</g>
			</g>
		</g>
		<g>
			<g>
				<rect y="138" class="st10" width="120" height="80"/>
			</g>
			<g>
				<rect y="218" class="st3" width="120" height="2"/>
			</g>
			<g>
				<path class="st5" d="M0,138v80h120v-80H0z M3.5,140c0.8,0,1.5,0.7,1.5,1.5c0,0.8-0.7,1.5-1.5,1.5S2,142.3,2,141.5
					C2,140.7,2.7,140,3.5,140z M7.5,140c0.8,0,1.5,0.7,1.5,1.5c0,0.8-0.7,1.5-1.5,1.5S6,142.3,6,141.5C6,140.7,6.7,140,7.5,140z
					 M11.5,140c0.8,0,1.5,0.7,1.5,1.5c0,0.8-0.7,1.5-1.5,1.5s-1.5-0.7-1.5-1.5C10,140.7,10.7,140,11.5,140z M118,216H2v-71h116V216z
					"/>
			</g>
			<g>
				<path class="st6" d="M6,158v36h108v-36H6z"/>
			</g>
			<g class="st7">
				<rect x="6" y="198" class="st8" width="19" height="4"/>
			</g>
			<g class="st7">
				<rect x="6" y="204" class="st8" width="108" height="12"/>
			</g>
			<g class="st7">
				<rect x="6" y="149" class="st8" width="108" height="5"/>
			</g>
			<g>
				<g>
					<g>
						<circle class="st4" cx="60" cy="176" r="12"/>
					</g>
				</g>
				<g>
					<path class="st3" d="M60,166v20c5.5,0,10-4.5,10-10C70,170.5,65.5,166,60,166z"/>
				</g>
				<g>
					<g>
						<path class="st6" d="M61.4,176l2.3-2.3c0.4-0.4,0.4-1,0-1.4c-0.4-0.4-1-0.4-1.4,0l-2.3,2.3l-2.3-2.3c-0.4-0.4-1-0.4-1.4,0
							c-0.4,0.4-0.4,1,0,1.4l2.3,2.3l-2.3,2.3c-0.4,0.4-0.4,1,0,1.4c0.4,0.4,1,0.4,1.4,0l2.3-2.3l2.3,2.3c0.4,0.4,1,0.4,1.4,0
							c0.4-0.4,0.4-1,0-1.4L61.4,176z"/>
					</g>
				</g>
			</g>
		</g>
		<g>
			<rect x="252" y="119" class="st2" width="40" height="2"/>
		</g>
		<g>
			<g>
				<g>
					<circle class="st1" cx="152" cy="57" r="1"/>
				</g>
			</g>
			<g>
				<g>
					<circle class="st1" cx="156" cy="57" r="1"/>
				</g>
			</g>
			<g>
				<g>
					<g>
						<path class="st1" d="M176,78c-0.6,0-1-0.4-1-1c0-0.5,0-1-0.1-1.7c0-0.5,0.4-1,0.9-1.1c0.6,0,1,0.4,1.1,0.9
							c0.1,0.7,0.1,1.3,0.1,1.9C177,77.6,176.6,78,176,78z"/>
					</g>
				</g>
				<g>
					<g>
						<path class="st1" d="M172.7,67c-0.3,0-0.6-0.2-0.8-0.4c-2.6-4-6.6-6.8-11.2-7.9c-0.5-0.1-0.9-0.7-0.7-1.2
							c0.1-0.5,0.7-0.9,1.2-0.7c5.1,1.3,9.5,4.4,12.4,8.8c0.3,0.5,0.2,1.1-0.3,1.4C173.1,66.9,172.9,67,172.7,67z"/>
					</g>
				</g>
			</g>
			<g>
				<g>
					<g>
						<path class="st1" d="M168,77.3c-0.5,0-1-0.4-1-0.9c-0.2-3-1.5-5.7-3.7-7.6c-0.4-0.4-0.5-1-0.1-1.4c0.4-0.4,1-0.5,1.4-0.1
							c2.6,2.3,4.2,5.5,4.4,9C169,76.8,168.6,77.2,168,77.3C168,77.3,168,77.3,168,77.3z"/>
					</g>
				</g>
				<g>
					<g>
						<path class="st1" d="M160.6,66.9c-0.1,0-0.3,0-0.4-0.1c-1.3-0.6-2.8-0.8-4.2-0.8c-0.6,0-1-0.4-1-1s0.4-1,1-1
							c1.7,0,3.4,0.3,5,1c0.5,0.2,0.8,0.8,0.5,1.3C161.4,66.7,161,66.9,160.6,66.9z"/>
					</g>
				</g>
			</g>
			<g>
				<g>
					<path class="st1" d="M178.3,107c-0.3,0-0.6-0.1-0.8-0.4c-1.6-2.2-2.5-4.9-2.5-7.7c0-0.6,0.4-1,1-1s1,0.4,1,1
						c0,2.4,0.7,4.6,2.1,6.5c0.3,0.4,0.2,1.1-0.2,1.4C178.7,106.9,178.5,107,178.3,107z"/>
				</g>
			</g>
			<g>
				<g>
					<circle class="st1" cx="176" cy="96" r="1"/>
				</g>
			</g>
			<g>
				<g>
					<path class="st1" d="M168,93c-0.6,0-1,0.4-1,1v2c0,0.6,0.4,1,1,1s1-0.4,1-1v-2C169,93.4,168.6,93,168,93z"/>
				</g>
			</g>
			<path class="st2" d="M173,99V77c0-9.4-7.6-17-17-17h-8v2h8c8.3,0,15,6.7,15,15v22c0,9.4,7.6,17,17,17v-2
				C179.7,114,173,107.3,173,99z"/>
			<g>
				<g>
					<path class="st2" d="M138,53c-4.4,0-8,3.6-8,8s3.6,8,8,8s8-3.6,8-8S142.4,53,138,53z M138,67c-3.3,0-6-2.7-6-6s2.7-6,6-6
						s6,2.7,6,6S141.3,67,138,67z"/>
				</g>
				<g>
					<circle class="st2" cx="138" cy="61" r="4"/>
				</g>
			</g>
			<path class="st1" d="M173.8,111.6c-0.4-0.4-1-0.5-1.4-0.1c-0.4,0.4-0.5,1-0.1,1.4c4,4.5,9.7,7.1,15.8,7.1v-2
				C182.6,118,177.4,115.7,173.8,111.6z"/>
			<g>
				<path class="st1" d="M169,106.3c-0.4,0-0.8-0.3-0.9-0.7c-0.7-2.1-1.1-4.3-1.1-6.6c0-0.6,0.4-1,1-1s1,0.4,1,1c0,2,0.3,4,0.9,5.9
					c0.2,0.5-0.1,1.1-0.6,1.3C169.2,106.2,169.1,106.3,169,106.3z"/>
			</g>
		</g>
		<g>
			<circle class="st1" cx="268" cy="116" r="1"/>
		</g>
		<g>
			<path class="st1" d="M279,115h-7c-0.6,0-1,0.4-1,1c0,0.6,0.4,1,1,1h7c0.6,0,1-0.4,1-1C280,115.4,279.6,115,279,115z"/>
		</g>
		<g>
			<circle class="st1" cx="271" cy="124" r="1"/>
		</g>
		<g>
			<circle class="st1" cx="268" cy="124" r="1"/>
		</g>
		<g>
			<path class="st1" d="M277,123h-3c-0.6,0-1,0.4-1,1c0,0.6,0.4,1,1,1h3c0.6,0,1-0.4,1-1C278,123.4,277.6,123,277,123z"/>
		</g>
		<g>
			<g>
				<rect x="371" y="161" class="st3" width="69" height="2"/>
			</g>
			<g>
				<rect x="320" y="161" class="st3" width="45" height="2"/>
			</g>
			<g>
				<g>
					<path class="st2" d="M369,168.2V71.8c1.2-0.4,2-1.5,2-2.8c0-1.7-1.3-3-3-3s-3,1.3-3,3c0,1.3,0.8,2.4,2,2.8v96.4
						c-1.2,0.4-2,1.5-2,2.8c0,1.7,1.3,3,3,3s3-1.3,3-3C371,169.7,370.2,168.6,369,168.2z"/>
				</g>
				<g>
					<rect x="371" y="81" class="st10" width="69" height="80"/>
				</g>
				<g>
					<path class="st11" d="M371,101v36h63v-36H371z"/>
				</g>
				<g class="st7">
					<rect x="371" y="147" class="st8" width="63" height="12"/>
				</g>
				<g class="st7">
					<rect x="371" y="92" class="st8" width="63" height="5"/>
				</g>
				<g>
					<path class="st4" d="M380,107c-3.6,0-6.8,1.6-9,4.1v15.8c2.2,2.5,5.4,4.1,9,4.1c6.6,0,12-5.4,12-12
						C392,112.4,386.6,107,380,107z"/>
				</g>
				<g class="st12">
					<path class="st11" d="M380,109v20c5.5,0,10-4.5,10-10C390,113.5,385.5,109,380,109z"/>
				</g>
				<g>
					<g>
						<path class="st11" d="M381.4,119l2.3-2.3c0.4-0.4,0.4-1,0-1.4c-0.4-0.4-1-0.4-1.4,0l-2.3,2.3l-2.3-2.3c-0.4-0.4-1-0.4-1.4,0
							c-0.4,0.4-0.4,1,0,1.4l2.3,2.3l-2.3,2.3c-0.4,0.4-0.4,1,0,1.4c0.4,0.4,1,0.4,1.4,0l2.3-2.3l2.3,2.3c0.4,0.4,1,0.4,1.4,0
							c0.4-0.4,0.4-1,0-1.4L381.4,119z"/>
					</g>
				</g>
				<g>
					<polygon class="st5" points="371,81 371,88 438,88 438,159 371,159 371,161 440,161 440,81 					"/>
				</g>
				<g>
					<rect x="320" y="81" class="st4" width="45" height="80"/>
				</g>
				<g>
					<g>
						<path class="st11" d="M326,101v36h39v-36H326z"/>
					</g>
				</g>
				<g class="st7">
					<rect x="326" y="141" class="st8" width="19" height="4"/>
				</g>
				<g class="st7">
					<rect x="326" y="147" class="st8" width="39" height="12"/>
				</g>
				<g class="st7">
					<rect x="326" y="92" class="st8" width="39" height="5"/>
				</g>
				<polygon class="st4" points="360,113 340,133 365,133 365,118 				"/>
				<g class="st12">
					<polygon class="st11" points="360,113 360,133 365,133 365,118 					"/>
				</g>
				<g>
					<path class="st5" d="M365,159h-43V88h43v-7h-45v80h45V159z M331.5,83c0.8,0,1.5,0.7,1.5,1.5c0,0.8-0.7,1.5-1.5,1.5
						c-0.8,0-1.5-0.7-1.5-1.5C330,83.7,330.7,83,331.5,83z M327.5,83c0.8,0,1.5,0.7,1.5,1.5c0,0.8-0.7,1.5-1.5,1.5
						c-0.8,0-1.5-0.7-1.5-1.5C326,83.7,326.7,83,327.5,83z M323.5,83c0.8,0,1.5,0.7,1.5,1.5c0,0.8-0.7,1.5-1.5,1.5
						c-0.8,0-1.5-0.7-1.5-1.5C322,83.7,322.7,83,323.5,83z"/>
				</g>
				<g>
					<path class="st8" d="M360,66h2c0.5,0,1,0.4,1,1l0,0c0,0.6-0.5,1-1,1h-2c-0.5,0-1-0.4-1-1l0,0C359,66.4,359.5,66,360,66z"/>
				</g>
				<g>
					<path class="st8" d="M354,70h8c0.5,0,1,0.4,1,1l0,0c0,0.6-0.5,1-1,1h-8c-0.5,0-1-0.4-1-1l0,0C353,70.4,353.5,70,354,70z"/>
				</g>
				<g>
					<path class="st8" d="M357,66L357,66c0.5,0,1,0.4,1,1l0,0c0,0.6-0.5,1-1,1l0,0c-0.5,0-1-0.4-1-1l0,0C356,66.4,356.5,66,357,66z"
						/>
				</g>
				<g>
					<path class="st8" d="M358,168h4c0.5,0,1,0.4,1,1l0,0c0,0.6-0.5,1-1,1h-4c-0.5,0-1-0.4-1-1l0,0C357,168.4,357.5,168,358,168z"/>
				</g>
				<g>
					<path class="st8" d="M362,172L362,172c0.5,0,1,0.4,1,1l0,0c0,0.6-0.5,1-1,1l0,0c-0.5,0-1-0.4-1-1l0,0
						C361,172.4,361.5,172,362,172z"/>
				</g>
				<g>
					<path class="st8" d="M354,168L354,168c0.5,0,1,0.4,1,1l0,0c0,0.6-0.5,1-1,1l0,0c-0.5,0-1-0.4-1-1l0,0
						C353,168.4,353.5,168,354,168z"/>
				</g>
			</g>
		</g>
		<g>
			<path class="st2" d="M171,141v22c0,8.3-6.7,15-15,15h-8v2h8c9.4,0,17-7.6,17-17v-22c0-8.3,6.7-15,15-15v-2
				C178.6,124,171,131.6,171,141z"/>
		</g>
		<g>
			<path class="st8" d="M244,88h-48c-4.4,0-8,3.6-8,8v48c0,4.4,3.6,8,8,8h48c4.4,0,8-3.6,8-8V96C252,91.6,248.4,88,244,88z"/>
			<path class="st2" d="M244,153h-48c-5,0-9-4-9-9V96c0-5,4-9,9-9h48c5,0,9,4,9,9v48C253,149,249,153,244,153z M196,89
				c-3.9,0-7,3.1-7,7v48c0,3.9,3.1,7,7,7h48c3.9,0,7-3.1,7-7V96c0-3.9-3.1-7-7-7H196z"/>
			<g>
				<g>
					<path class="st3" d="M241.1,149h-42.2c-4.4,0-7.9-3.5-7.9-7.9V98.9c0-4.4,3.5-7.9,7.9-7.9h42.2c4.4,0,7.9,3.5,7.9,7.9v42.2
						C249,145.5,245.5,149,241.1,149z"/>
				</g>
			</g>
			<g>
				<circle class="st2" cx="196" cy="77" r="1"/>
			</g>
			<g>
				<circle class="st2" cx="243" cy="79" r="1"/>
			</g>
			<g>
				<circle class="st2" cx="235" cy="167" r="1"/>
			</g>
			<g>
				<circle class="st2" cx="213" cy="179" r="1"/>
			</g>
			<g>
				<circle class="st2" cx="203" cy="61" r="1"/>
			</g>
			<g>
				<path class="st2" d="M221,67h-1v-1c0-0.5-0.5-1-1-1s-1,0.5-1,1v1h-1c-0.5,0-1,0.5-1,1s0.5,1,1,1h1v1c0,0.5,0.5,1,1,1s1-0.5,1-1
					v-1h1c0.5,0,1-0.5,1-1S221.5,67,221,67z"/>
			</g>
			<g>
				<path class="st2" d="M204,168h-1v-1c0-0.5-0.5-1-1-1s-1,0.5-1,1v1h-1c-0.5,0-1,0.5-1,1s0.5,1,1,1h1v1c0,0.5,0.5,1,1,1s1-0.5,1-1
					v-1h1c0.5,0,1-0.5,1-1S204.5,168,204,168z"/>
			</g>
			<g class="st13">
				<path class="st2" d="M240.9,143h-41.6c-3.3,0-6.3-3.1-6.3-6.4v3.9c0,3.4,2.5,6.6,5.9,6.6h42c3.4,0,6.1-3.1,6.1-6.5v-3.9
					C247,139.9,244.3,143,240.9,143z"/>
			</g>
			<g>
				<path class="st4" d="M240.9,97h-41.6c-3.3,0-6.3,2.7-6.3,6v-3.9c0-3.4,2.5-6.1,5.9-6.1h42c3.4,0,6.1,2.7,6.1,6.1v3.9
					C247,99.7,244.3,97,240.9,97z"/>
			</g>
			<g>
				<path class="st8" d="M220,98c-12.2,0-22,9.8-22,22c0,12.2,9.8,22,22,22s22-9.8,22-22C242,107.8,232.2,98,220,98z"/>
			</g>
			<g>
				<path class="st0" d="M220,101c-10.5,0-19,8.5-19,19c0,10.5,8.5,19,19,19s19-8.5,19-19C239,109.5,230.5,101,220,101z"/>
			</g>
			<g>
				<path class="st2" d="M220,100c-11,0-20,9-20,20c0,11,9,20,20,20s20-9,20-20C240,109,231,100,220,100z M220,138
					c-9.9,0-18-8.1-18-18c0-9.9,8.1-18,18-18s18,8.1,18,18C238,129.9,229.9,138,220,138z"/>
			</g>
			<g>
				<path class="st2" d="M205.2,114c-0.8,1.9-1.2,3.9-1.2,6c0,2.9,0.8,5.5,2.1,7.9L214,114H205.2z"/>
			</g>
			<g>
				<path class="st2" d="M222.2,135.8c5-0.7,9.2-3.7,11.6-7.8h-16.2L222.2,135.8z"/>
			</g>
			<g>
				<path class="st2" d="M217.8,104.2c-5,0.7-9.2,3.7-11.6,7.8h16.2L217.8,104.2z"/>
			</g>
			<g>
				<path class="st2" d="M207.4,129.8c2.9,3.8,7.5,6.2,12.6,6.2l-8.1-14L207.4,129.8z"/>
			</g>
			<g>
				<path class="st2" d="M233.9,112.1L226,126h8.8c0.8-1.9,1.2-3.9,1.2-6C236,117.1,235.2,114.5,233.9,112.1z"/>
			</g>
			<g>
				<path class="st2" d="M232.6,110.2c-2.9-3.8-7.5-6.2-12.6-6.2l8.1,14L232.6,110.2z"/>
			</g>
			<g>
				<g>
					<path class="st14" d="M217,83h-2c0-3-2.2-5-5-5s-5,2-5,5h-2c0-4,3.1-7,7-7S217,79,217,83z"/>
				</g>
			</g>
			<g>
				<g>
					<path class="st11" d="M227,83h-2c0-3-2.2-5-5-5s-5,2-5,5h-2c0-4,3.1-7,7-7C223.9,76,227,79,227,83z"/>
				</g>
			</g>
			<g>
				<g>
					<path class="st14" d="M237,83h-2c0-3-2.2-5-5-5s-5,2-5,5h-2c0-4,3.1-7,7-7S237,79,237,83z"/>
				</g>
			</g>
			<g>
				<path class="st2" d="M201,83v6h6v-6H201z M205,87h-2v-2h2V87z"/>
			</g>
			<g>
				<path class="st2" d="M233,83v6h6v-6H233z M237,87h-2v-2h2V87z"/>
			</g>
			<g>
				<path class="st2" d="M211,83v6h6v-6H211z M215,87h-2v-2h2V87z"/>
			</g>
			<g>
				<path class="st2" d="M221,83v6h6v-6H221z M225,87h-2v-2h2V87z"/>
			</g>
			<g>
				<rect x="217" y="83" class="st1" width="2" height="4"/>
			</g>
			<g>
				<rect x="227" y="83" class="st1" width="2" height="4"/>
			</g>
			<g>
				<g>
					<path class="st11" d="M210,164c-3.9,0-7-3-7-7h2c0,3,2.2,5,5,5s5-2,5-5h2C217,161,213.9,164,210,164z"/>
				</g>
			</g>
			<g>
				<g>
					<path class="st14" d="M220,164c-3.9,0-7-3-7-7h2c0,3,2.2,5,5,5s5-2,5-5h2C227,161,223.9,164,220,164z"/>
				</g>
			</g>
			<g>
				<g>
					<path class="st11" d="M230,164c-3.9,0-7-3-7-7h2c0,3,2.2,5,5,5s5-2,5-5h2C237,161,233.9,164,230,164z"/>
				</g>
			</g>
			<g>
				<path class="st2" d="M207,157v-6h-6v6H207z M205,155h-2v-2h2V155z"/>
			</g>
			<g>
				<path class="st2" d="M239,157v-6h-6v6H239z M237,155h-2v-2h2V155z"/>
			</g>
			<g>
				<path class="st2" d="M217,157v-6h-6v6H217z M215,155h-2v-2h2V155z"/>
			</g>
			<g>
				<path class="st2" d="M227,157v-6h-6v6H227z M225,155h-2v-2h2V155z"/>
			</g>
			<g>
				<rect x="217" y="153" class="st1" width="2" height="4"/>
			</g>
			<g>
				<rect x="227" y="153" class="st1" width="2" height="4"/>
			</g>
		</g>
	</g>
</g>
<g id="Layer_2">
</g>
</svg>
