<?xml version="1.0" encoding="utf-8"?>
<!-- Generator: Adobe Illustrator 19.0.1, SVG Export Plug-In . SVG Version: 6.00 Build 0)  -->
<svg version="1.1" id="Layer_2" xmlns="http://www.w3.org/2000/svg" xmlns:xlink="http://www.w3.org/1999/xlink" x="0px" y="0px"
	 viewBox="0 0 960 320" style="enable-background:new 0 0 960 320;" xml:space="preserve">
<style type="text/css">
	.st0{fill:#FFFFFF;}
	.st1{fill:#424242;}
	.st2{fill:#E91E63;}
	.st3{fill:#F5F5F5;}
	.st4{fill:#483C5B;}
	.st5{fill:#9E9E9E;}
	.st6{fill:#E0E0E0;}
	.st7{fill:#F44336;}
	.st8{fill:#FFC107;}
	.st9{fill:#4CAF50;}
	.st10{fill:#BDBDBD;}
</style>
<rect y="80" class="st0" width="960" height="64"/>
<rect x="48" y="104" class="st1" width="80" height="16"/>
<rect y="40" class="st2" width="960" height="40"/>
<rect y="144" class="st3" width="960" height="176"/>
<rect class="st4" width="960" height="40"/>
<path class="st1" d="M36,104H24v16h16v-12C37.8,108,36,106.2,36,104z"/>
<circle class="st2" cx="40" cy="104" r="2"/>
<rect x="152" y="104" class="st5" width="16" height="16"/>
<rect x="176" y="104" class="st5" width="80" height="16"/>
<rect x="24" y="168" class="st5" width="120" height="16"/>
<rect x="152" y="175" class="st6" width="784" height="2"/>
<rect x="280" y="104" class="st5" width="16" height="16"/>
<rect x="304" y="104" class="st5" width="80" height="16"/>
<rect x="408" y="104" class="st5" width="16" height="16"/>
<rect x="432" y="104" class="st5" width="80" height="16"/>
<rect x="536" y="104" class="st5" width="16" height="16"/>
<rect x="560" y="104" class="st5" width="80" height="16"/>
<rect x="24" y="52" class="st0" width="80" height="16"/>
<rect x="112" y="52" class="st0" width="16" height="16"/>
<rect x="832" y="52" class="st0" width="80" height="16"/>
<rect x="920" y="52" class="st0" width="16" height="16"/>
<rect x="24" y="142" class="st2" width="104" height="2"/>
<circle class="st7" cx="30" cy="20" r="6"/>
<circle class="st8" cx="50" cy="20" r="6"/>
<circle class="st9" cx="70" cy="20" r="6"/>
<g>
	<path class="st6" d="M239,320V212c0-1.7-1.3-3-3-3H28c-1.7,0-3,1.3-3,3v108H239z"/>
	<path class="st10" d="M26,320V212c0-1.1,0.9-2,2-2h208c1.1,0,2,0.9,2,2v108h2V212c0-2.2-1.8-4-4-4H28c-2.2,0-4,1.8-4,4v108H26z"/>
</g>
<g>
	<path class="st6" d="M471,320V212c0-1.7-1.3-3-3-3H260c-1.7,0-3,1.3-3,3v108H471z"/>
	<path class="st10" d="M258,320V212c0-1.1,0.9-2,2-2h208c1.1,0,2,0.9,2,2v108h2V212c0-2.2-1.8-4-4-4H260c-2.2,0-4,1.8-4,4v108H258z"
		/>
</g>
<g>
	<path class="st6" d="M703,320V212c0-1.7-1.3-3-3-3H492c-1.7,0-3,1.3-3,3v108H703z"/>
	<path class="st10" d="M490,320V212c0-1.1,0.9-2,2-2h208c1.1,0,2,0.9,2,2v108h2V212c0-2.2-1.8-4-4-4H492c-2.2,0-4,1.8-4,4v108H490z"
		/>
</g>
<path class="st2" d="M936,320V212c0-2.2-1.8-4-4-4H724c-2.2,0-4,1.8-4,4v108H936z"/>
</svg>
